<?xml version="1.0" encoding="UTF-8" standalone="no"?>
<!-- Generator: Adobe Illustrator 16.0.0, SVG Export Plug-In . SVG Version: 6.00 Build 0)  -->

<svg
   version="1.1"
   id="레이어_1"
   x="0px"
   y="0px"
   width="815.4px"
   height="710.6px"
   viewBox="0 0 815.4 710.6"
   enable-background="new 0 0 815.4 710.6"
   xml:space="preserve"
   sodipodi:docname="hyperbooklogosvg10.svg"
   inkscape:version="1.3.2 (091e20e, 2023-11-25, custom)"
   xmlns:inkscape="http://www.inkscape.org/namespaces/inkscape"
   xmlns:sodipodi="http://sodipodi.sourceforge.net/DTD/sodipodi-0.dtd"
   xmlns="http://www.w3.org/2000/svg"
   xmlns:svg="http://www.w3.org/2000/svg"><defs
   id="defs23">
	
	
</defs><sodipodi:namedview
   id="namedview23"
   pagecolor="#ffffff"
   bordercolor="#000000"
   borderopacity="0.25"
   inkscape:showpageshadow="2"
   inkscape:pageopacity="0.0"
   inkscape:pagecheckerboard="0"
   inkscape:deskcolor="#d1d1d1"
   inkscape:zoom="1.1075148"
   inkscape:cx="408.12095"
   inkscape:cy="283.06619"
   inkscape:window-width="1720"
   inkscape:window-height="983"
   inkscape:window-x="103"
   inkscape:window-y="8"
   inkscape:window-maximized="0"
   inkscape:current-layer="레이어_1" />
<g
   id="g16"
   transform="translate(-1.8058456,-28.89352)">
		<path
   fill-rule="evenodd"
   clip-rule="evenodd"
   d="m 499.6,641 c 8.6,7.7 15.7,14.3 23.1,20.5 11,9.3 10.5,16.7 -2.2,24 -7,4 -14.1,8 -21.4,11.4 -4.1,1.9 -8.7,3.9 -13.1,4.1 -9.9,0.4 -19.3,-1.1 -27.4,8.2 -2.5,2.8 -12.8,0.9 -18.4,-1.4 -15.5,-6.6 -25.4,-19.6 -33.9,-33.5 -3.8,-6.3 -7.6,-8.2 -14.5,-5.7 -23.6,8.4 -47.3,16.6 -71.1,24.5 -8.4,2.8 -17.2,4.8 -25.9,6.6 -19,3.9 -33.8,-3.7 -44,-19 C 209.9,619.2 169.1,557.7 129.2,495.5 97.1,445.5 66.1,394.8 35.1,344.1 19,317.3 3.1,289.9 0.6,258 -2.6,217.3 7.2,182 40.1,153.4 71.9,125.8 109.5,116 148.7,108.2 225.1,93 299.1,70.1 370.8,39.9 c 27.1,-11.4 53.9,-23.6 81.4,-34 27.7,-10.4 31.8,-8.2 49.6,15 56.2,73.3 112.5,146.5 168.8,219.6 41.5,53.9 83.2,107.8 124.8,161.7 5.3,6.8 11.6,12.9 16.2,20.2 7.7,12.1 2.9,23.4 -10.9,27.5 -6.9,2 -14,3.7 -20.9,5.5 -19.9,5.2 -28.7,22.1 -19,40.5 5.8,11 15.1,20.1 23,30 3.6,4.5 8,8.4 11.1,13.1 6.2,9.7 3.1,17 -8.3,20.1 -23.9,6.4 -48,12.4 -71.9,19.2 -67.2,19 -134.2,38.3 -201.3,57.5 -4,1 -7.8,2.9 -13.8,5.2 z"
   id="path1" />
		<path
   fill-rule="evenodd"
   clip-rule="evenodd"
   fill="#f5c142"
   d="m 59.6,159.1 c 6.7,10.3 13.1,19.8 19.3,29.6 43,68.4 85.7,136.9 128.9,205.2 34.5,54.7 69.5,109 104,163.6 2.9,4.5 5.3,3.4 9.2,1.9 16.7,-6.3 33.2,-13.6 50.5,-17.9 56.8,-14.2 114,-26.6 170.8,-41 82.7,-21 165.2,-43.1 247.7,-64.8 2.8,-0.8 5.5,-2 9.8,-3.6 -13.4,-16.5 -26.1,-31.5 -38,-46.9 C 710.9,319.5 659.9,253.9 609.4,187.9 568.1,134 527.6,79.7 486.8,25.5 478.8,15 477.3,14 465,18 c -11.2,3.6 -22.2,8.1 -33.1,12.5 -50.3,20.1 -100,42.1 -151,60.1 -52.2,18.4 -106.4,30.6 -161,40.5 -22.2,4 -42.7,11.8 -60.3,28 z"
   id="path2" />
		<path
   fill-rule="evenodd"
   clip-rule="evenodd"
   fill="#fef4e3"
   d="m 744.2,464.6 c -11.1,2.6 -20.5,4.3 -29.5,6.9 -97.1,27.7 -195.1,52 -293.6,74 -35.5,7.9 -70.7,17.2 -103.3,34.1 -2,1 -4.5,1.1 -6.5,2 -3.8,1.6 -8.3,2.7 -11,5.5 -13.8,14 -18.4,32.3 -21.4,51 -0.3,1.7 3.4,5.7 5,5.6 12.5,-1 25.5,-1 37.3,-4.6 26.7,-8.2 52.4,-20 79.4,-27.2 98.1,-26 196.6,-50.7 295,-75.8 20.1,-5.1 40.1,-10.3 61.8,-15.9 -13.9,-16.4 -17,-34.4 -13.2,-55.6 z"
   id="path3" />
		<path
   fill-rule="evenodd"
   clip-rule="evenodd"
   fill="#e1ae3f"
   d="m 231.5,460 c -26.1,-40.3 -51.8,-80 -77.7,-120.2 -14.8,9.4 -25,21.2 -31.5,36.1 -11.9,27.4 -8.2,55 4.7,80.2 14.3,27.9 31.9,54 48.1,80.9 0.6,1 1.9,1.7 3.4,3 4.4,-36.1 23.3,-61.5 53,-80 z"
   id="path4" />
		<path
   fill-rule="evenodd"
   clip-rule="evenodd"
   fill="#e1ae3f"
   d="m 47.9,168.7 c -5.1,4.9 -9.4,8 -12.4,12 -18.1,23.9 -22.8,51.3 -18.3,80.2 4.3,27.6 18.1,51.4 31.9,75.1 0.6,1 1.9,1.5 4,3.2 0.1,-38.3 15,-67.5 47.3,-86.7 C 82.5,223.9 65.6,197 47.9,168.7 Z"
   id="path5" />
		<path
   fill-rule="evenodd"
   clip-rule="evenodd"
   fill="#e1ae3f"
   d="m 229.3,620.5 c 0.6,-0.3 1.3,-0.5 1.9,-0.8 0.1,-1.1 0.3,-2.2 0.3,-3.2 -0.3,-34.6 9,-64.9 38.5,-86.1 4.1,-2.9 3.5,-6 1,-9.6 -8.7,-12.9 -17.5,-25.7 -25.7,-38.9 -3.7,-5.8 -7.5,-6.3 -12.8,-2.8 -18.5,12.3 -31.5,29 -36,50.8 -3,14.6 -4.7,30.1 3.2,43.9 9.2,16.1 19.7,31.2 29.6,46.7 z"
   id="path6" />
		<path
   fill-rule="evenodd"
   clip-rule="evenodd"
   fill="#e1ae3f"
   d="m 98.7,413.4 c -0.1,-17.7 0.7,-35 11.2,-49.3 10.1,-13.8 22.1,-26.3 33.9,-40.3 -9.1,-14.5 -19.1,-30.4 -29,-46.2 -6.3,-10 -8.5,-10.4 -17.6,-2.4 -17.4,15.2 -26.4,33.9 -27.6,57.4 -1.6,31.3 11.6,56.6 29.1,80.8 z"
   id="path7" />
		<path
   fill-rule="evenodd"
   clip-rule="evenodd"
   fill="#c3231f"
   d="m 511.6,672.5 c -19.7,-16.6 -32.9,-34.2 -34.6,-58.4 -0.4,-5.2 -3.9,-4.4 -7.6,-3.4 -14.5,3.8 -29.1,7.2 -43.5,11.1 -7.6,2.1 -15.1,4.9 -22.5,7.4 4.7,21.4 18.9,44.7 34.7,57.9 12.5,10.4 13.1,10.4 22.3,-3 3.2,-4.7 5.8,-6.7 11.7,-2.4 3.6,2.6 10.2,3.7 14.5,2.4 8,-2.4 15.4,-7 25,-11.6 z"
   id="path8" />
		<path
   fill-rule="evenodd"
   clip-rule="evenodd"
   fill="#fef4e3"
   d="m 778.3,542.2 c -3.2,-6.1 -7.3,-9 -16,-6.7 -62.7,16.3 -125.6,31.9 -188.4,47.9 -25.1,6.4 -50.2,13.1 -75.3,19.3 -6.1,1.5 -7.9,4.7 -6.6,10.5 0.7,3 1.1,6.1 1.9,10.4 95.1,-27.3 189.4,-54.2 284.4,-81.4 z"
   id="path9" />
		<path
   fill-rule="evenodd"
   clip-rule="evenodd"
   fill="#e1ae3f"
   d="m 262.1,669 c -3.7,-41.6 3.9,-65.5 30.2,-96.7 4.1,-4.8 5.3,-9.3 2,-14.8 -1.7,-3 -3.4,-6.1 -4.7,-9.2 -2.9,-6.6 -7.8,-7 -12.4,-3 -5.4,4.6 -10.7,9.8 -14.4,15.8 -18.6,29.8 -18.1,61.6 -8.1,94 1.2,4.2 4.1,7.9 7.4,13.9 z"
   id="path10" />
		<path
   fill-rule="evenodd"
   clip-rule="evenodd"
   fill="#fef4e3"
   d="m 279.6,659.7 c 2.3,17.9 13,24.7 29.8,19.2 23.2,-7.7 46.3,-15.8 69.6,-23.4 15.3,-5 15.4,-4.8 9.2,-20 -0.1,-0.2 -0.4,-0.4 -1.3,-1.2 -2.7,0.8 -6,1.8 -9.2,2.7 -32.5,8.6 -62.3,28.3 -98.1,22.7 z"
   id="path11" />
		<path
   fill-rule="evenodd"
   clip-rule="evenodd"
   d="m 107.7,183.2 c 0.3,5.6 0.9,10.4 0.8,15.2 -0.1,1.9 -1.5,4.3 -3.1,5.3 -0.9,0.6 -4.2,-0.9 -4.9,-2.3 -4.8,-9.1 -10.4,-18 -13.5,-27.7 -3.2,-10.2 3.5,-22.3 14.5,-25.3 9.6,-2.6 20.2,-2 30.4,-1.7 2.2,0.1 4.3,4.9 6.4,7.5 -2.6,1.7 -5,4.3 -7.9,5 -5.3,1.2 -10.9,0.8 -16.3,2 -3.8,0.8 -7.4,3.1 -11.1,4.7 0.2,0.9 0.4,1.8 0.5,2.8 6,0.8 12.2,1.2 18.1,2.5 4.1,0.9 10,0.6 9.2,7.7 -0.8,7 -6,6.7 -11,6.2 -3.8,-0.6 -7.7,-1.3 -12.1,-1.9 z"
   id="path12" />
		<path
   fill-rule="evenodd"
   clip-rule="evenodd"
   d="m 682.9,415.6 c 4.9,-0.3 9.8,-0.9 14.6,-0.9 9.2,0.1 18.5,1.8 27.4,0.5 11.6,-1.8 12.9,-6.4 8.4,-17 -2.7,-6.5 -4.9,-13.5 -6,-20.5 -0.4,-2.4 2.5,-6.2 4.9,-7.8 1.1,-0.7 5.7,2 7,4.1 4.9,8.4 10,16.9 13.4,26 3.9,10.5 0.4,17.9 -9.2,24.3 -16.6,10.9 -44.7,8.1 -60.5,-8.7 z"
   id="path13" />
		<path
   fill-rule="evenodd"
   clip-rule="evenodd"
   d="m 480.3,56.7 c -6.4,6.6 -12,12.3 -17.5,18 -1.2,-0.7 -2.4,-1.4 -3.6,-2.1 1.6,-8.2 3.2,-16.4 5.1,-26.1 -6.6,3.5 -12.4,7.3 -18.7,9.9 -4.1,1.6 -8.9,1.5 -13.4,2.1 2,-4.6 2.8,-10.5 6.2,-13.7 9.7,-9.2 22.3,-12.1 35.3,-11.2 4.7,0.3 11.5,3 13.1,6.6 4.7,10.3 7.5,21.4 10.5,32.4 0.5,1.7 -2,4.3 -3.2,6.5 -1.9,-1.5 -4.4,-2.6 -5.4,-4.5 -3.2,-5.7 -5.7,-11.8 -8.4,-17.9 z"
   id="path14" />
		<path
   fill-rule="evenodd"
   clip-rule="evenodd"
   d="m 320.6,521.8 c 4.3,-5.4 7.3,-10 11.1,-13.8 1.7,-1.7 4.9,-1.8 7.5,-2.6 0.7,2.3 1.9,4.6 1.9,6.9 0.1,3.4 -0.7,6.8 -1.2,11.3 7.3,-2.4 14,-4.8 20.7,-6.8 4.7,-1.4 10.5,-3.6 12.4,2.8 0.6,2.1 -4,7.7 -7.1,8.6 -14,3.9 -28.2,7.3 -42.6,9.6 -3.6,0.6 -9.7,-2.4 -11.5,-5.6 -5.3,-9 -9.2,-18.8 -12.9,-28.6 -0.8,-2 1.7,-5.3 2.7,-8 2.5,1.6 5.8,2.6 7.2,4.8 4,6.5 7.5,13.5 11.8,21.4 z"
   id="path15" />
		<path
   fill-rule="evenodd"
   clip-rule="evenodd"
   d="m 710.2,391.3 c 7.3,0 17.3,8.2 18.5,15.6 0.2,1.5 -2,4.6 -3.6,5.1 -7.2,1.9 -21.4,-6.6 -24.1,-13.8 -1.8,-5.2 0.5,-6.9 9.2,-6.9 z"
   id="path16" />
	</g><g
   id="_x32_9_x2C__Glucose_x2C__Component_x2C__chemical_x2C__education_x2C__molecule_x2C__energy"
   transform="matrix(0.70530312,-0.17479963,0.13602811,0.54886298,162.84458,114.55534)">
	<g
   id="g3">
		<g
   id="g2">
			<path
   id="XMLID_483_"
   d="m 476.069,227.362 c -21.398,-11.846 -48.42,-0.274 -54.544,23.48 h -29.624 c -0.897,-7.478 -3.995,-14.285 -8.631,-19.756 l 28.433,-43.845 c 10.22,3.341 21.511,2.248 31.039,-3.469 0,0 0.007,-0.005 0.011,-0.007 17.747,-10.681 23.504,-33.807 12.833,-51.549 -5.167,-8.596 -13.375,-14.667 -23.109,-17.093 -20.107,-5.011 -40.436,7.17 -45.508,27.267 -3.24,12.841 0.533,25.728 8.904,34.739 l -27.943,43.089 c -7.427,-2.826 -15.591,-3.234 -23.371,-1.069 l -12.948,-22.427 c 12.098,-11.899 14.98,-30.98 5.863,-46.14 -5.167,-8.596 -13.375,-14.666 -23.109,-17.092 -20.156,-5.025 -40.306,7.201 -45.428,27.059 h -25.511 c -1.658,-6.387 -4.996,-12.321 -9.768,-17.113 l 20.627,-34.851 c 10.101,2.701 20.471,1.095 29.052,-4.057 l 0.008,-0.005 c 17.747,-10.68 23.504,-33.807 12.833,-51.55 -10.689,-17.783 -33.75,-23.538 -51.536,-12.84 -21.194,12.716 -24.45,42.165 -6.728,59.235 l -20.428,34.514 c -5.163,-1.493 -10.634,-1.887 -16.029,-1.083 L 162.355,79.166 c 11.128,-11.936 13.549,-30.275 4.732,-44.97 -10.67,-17.742 -33.794,-23.505 -51.547,-12.847 -0.003,0.001 -0.006,0.003 -0.006,0.003 -17.75,10.682 -23.506,33.808 -12.836,51.552 9.135,15.195 27.39,21.721 43.78,16.369 l 37.311,51.177 c -6.099,4.804 -10.377,11.237 -12.578,18.3 l -50.038,-1.4 c -5.821,-24.873 -34.192,-36.671 -55.909,-23.61 -17.751,10.65 -23.519,33.771 -12.852,51.548 7.041,11.708 19.502,18.199 32.267,18.199 16.71,0 31.469,-11.092 36.053,-27.359 l 49.528,1.386 c 1.463,7.136 4.952,13.702 10.252,18.992 l -13.067,22.64 c -23.976,-6.67 -47.619,11.474 -47.619,36.189 0,24.692 23.618,42.866 47.619,36.189 l 12.936,22.417 c -5.314,5.222 -8.849,11.828 -10.372,18.885 -14.58,4.759 -66.386,21.67 -85.603,27.943 -9.907,-13.599 -28.439,-19.481 -45.086,-12.357 -19.038,8.141 -27.909,30.26 -19.773,49.307 0.002,0.005 0.003,0.008 0.005,0.012 6.102,14.231 20.011,22.776 34.603,22.776 22.552,0 40.005,-19.918 37.199,-42.247 18.183,-5.935 61.101,-19.945 79.606,-25.986 2.372,7.354 6.833,13.534 12.543,18.017 l -20.04,50.641 c -21.68,-0.853 -39.044,16.478 -39.078,37.482 -0.016,10.066 3.91,19.534 11.06,26.665 14.675,14.602 38.506,14.552 53.123,-0.114 0,0 0.005,-0.005 0.007,-0.007 17.095,-17.19 13.647,-45.895 -7.069,-58.578 l 19.222,-48.574 c 7.828,1.274 15.349,0.068 22.137,-3.188 l 41.821,57.366 c -11.023,11.785 -13.675,30.056 -4.722,44.979 10.638,17.688 33.743,23.536 51.547,12.846 0,0 0.005,-0.004 0.008,-0.005 17.747,-10.682 23.503,-33.807 12.833,-51.55 -9.331,-15.523 -27.796,-21.601 -43.789,-16.375 l -43.276,-59.362 c 2.674,-3.768 4.612,-7.976 5.751,-12.393 h 25.868 c 4.268,16.428 19.053,28.188 36.454,28.188 16.331,0 32.018,-10.978 36.381,-28.495 3.345,-13.434 -0.977,-26.873 -10.12,-35.886 l 12.935,-22.406 c 8.407,2.339 17.355,1.698 25.38,-1.904 l 46.469,61.692 c -9.976,11.707 -12.271,29.212 -3.578,43.698 10.64,17.691 33.744,23.539 51.549,12.845 l 0.006,-0.004 c 17.747,-10.682 23.503,-33.807 12.833,-51.55 -9.537,-15.866 -28.848,-22.086 -45.434,-15.795 l -47.158,-62.606 c 1.907,-2.53 3.499,-5.31 4.724,-8.279 h 32.21 c 2.496,9.65 8.781,18.3 18.169,23.491 l 0.007,0.005 c 18.07,9.97 40.997,3.464 51.042,-14.723 10.036,-18.163 3.461,-41.001 -14.706,-51.033 z M 315.345,304.56 c -20.117,-5.573 -41.115,6.254 -46.417,26.783 h -25.873 c -5.308,-20.603 -26.467,-32.306 -46.406,-26.787 l -12.948,-22.437 c 15.023,-14.762 14.995,-38.827 0.001,-53.561 l 13.011,-22.543 c 20.517,5.868 41.445,-6.357 46.692,-26.683 h 25.516 c 5.294,20.548 26.417,32.341 46.428,26.791 l 12.952,22.435 c -15.023,14.763 -14.991,38.827 0,53.559 z" />
		</g>
	</g>
</g>
<g
   id="g1"
   transform="matrix(6.1888933,-1.5324968,3.3976999,4.106032,-759.33886,310.79759)"><path
     d="m 133.09949,77.422286 v 1.930572 h -3.96091 v -1.930572 h 3.96091 m -3.41177,-4.703934 v 11.612834 h -1.94376 V 72.718352 h 1.94376 m 4.81998,0 v 11.612834 h -1.92473 V 72.718352 Z m 3.29215,10.623048 1.49792,-7.640623 h 1.93832 l -2.36241,9.920724 q -0.0788,0.326662 -0.21749,0.70559 -0.14136,0.378928 -0.36972,0.718656 -0.22835,0.339729 -0.57361,0.555326 -0.34525,0.215597 -0.82916,0.215597 -0.24738,0 -0.39418,-0.03593 -0.14952,-0.03593 -0.37516,-0.117598 V 85.9253 q 0.0598,0 0.11418,0.0033 0.0571,0.0033 0.11146,0.0033 0.30991,0 0.49749,-0.098 0.18486,-0.101265 0.30176,-0.307062 0.1169,-0.209064 0.19573,-0.519393 l 0.46487,-1.665976 m -0.38603,-7.640623 1.1146,6.190244 0.25283,2.518564 -1.25325,0.143731 -2.10415,-8.852539 z m 6.49188,1.659442 v 10.286518 h -1.85133 V 75.700777 h 1.71269 l 0.13864,1.659442 m 3.72984,2.361767 v 0.571658 q 0,1.012652 -0.1468,1.790108 -0.1468,0.777456 -0.43496,1.316448 -0.28817,0.538992 -0.72042,0.813388 -0.42953,0.277663 -1.00858,0.277663 -0.53555,0 -0.9243,-0.307063 -0.38876,-0.307062 -0.65517,-0.852587 -0.2637,-0.542259 -0.4241,-1.267448 -0.16039,-0.72519 -0.24466,-1.554912 v -0.891787 q 0.0788,-0.885254 0.23107,-1.630044 0.15224,-0.748056 0.42138,-1.296847 0.26913,-0.552059 0.65788,-0.849322 0.38876,-0.300529 0.92431,-0.300529 0.58449,0 1.01945,0.254796 0.43497,0.254797 0.72314,0.770923 0.28816,0.512859 0.43496,1.303381 0.1468,0.790522 0.1468,1.852174 m -1.85948,0.571658 v -0.571658 q 0,-0.623925 -0.0544,-1.061652 -0.0571,-0.437727 -0.17671,-0.718656 -0.11961,-0.277663 -0.31263,-0.405061 -0.19301,-0.127399 -0.47031,-0.127399 -0.27185,0 -0.47574,0.127399 -0.20117,0.127398 -0.32895,0.369128 -0.12505,0.244997 -0.19029,0.591258 -0.068,0.346262 -0.0734,0.783989 v 1.564711 q 0.0136,0.516126 0.11418,0.91792 0.1033,0.398527 0.3371,0.633724 0.23107,0.235198 0.6307,0.235198 0.28544,0 0.47302,-0.143732 0.1903,-0.143732 0.30992,-0.431195 0.11961,-0.287462 0.16855,-0.725188 0.0489,-0.440995 0.0489,-1.038786 z m 5.8938,4.197607 q -0.73672,0 -1.30218,-0.274396 -0.56818,-0.271129 -0.95965,-0.783989 -0.39147,-0.512859 -0.59808,-1.247849 -0.20661,-0.734989 -0.20661,-1.675776 v -0.708857 q 0,-1.051851 0.20118,-1.84564 0.19845,-0.793788 0.56273,-1.336048 0.36429,-0.542258 0.89984,-0.810121 0.53284,-0.267863 1.20975,-0.267863 0.67692,0 1.19344,0.267863 0.51381,0.267863 0.85091,0.797055 0.33982,0.532459 0.51109,1.313181 0.17398,0.780723 0.17398,1.816241 v 1.022453 h -4.81182 V 79.18626 h 2.98768 v -0.199263 q 0,-0.525927 -0.0951,-0.881988 -0.0924,-0.352795 -0.29088,-0.529193 -0.19846,-0.176397 -0.53012,-0.176397 -0.28001,0 -0.47303,0.137198 -0.19301,0.133931 -0.30447,0.421394 -0.11418,0.287462 -0.16583,0.744789 -0.0544,0.460594 -0.0544,1.097584 v 0.708857 q 0,0.597791 0.087,1.002852 0.087,0.401795 0.25554,0.653325 0.16855,0.251529 0.41594,0.359327 0.24466,0.1078 0.57089,0.1078 0.48934,0 0.88625,-0.212332 0.39418,-0.21233 0.67147,-0.578191 l 0.74489,1.355647 q -0.19302,0.303796 -0.53012,0.607592 -0.33982,0.300529 -0.81013,0.493259 -0.47302,0.192731 -1.09013,0.192731 z m 5.46971,-6.869702 v 6.709637 h -1.85948 v -8.630409 h 1.75346 l 0.10602,1.920772 m 1.69365,-1.982839 -0.0272,2.224569 q -0.12777,-0.03267 -0.30176,-0.049 -0.1767,-0.01633 -0.30991,-0.01633 -0.31263,0 -0.53012,0.117598 -0.2202,0.114331 -0.36156,0.342995 -0.14408,0.225397 -0.21749,0.561858 -0.0707,0.333196 -0.0843,0.757856 l -0.35341,-0.160064 q 0,-0.846054 0.11146,-1.551645 0.10874,-0.705589 0.32623,-1.228248 0.2202,-0.52266 0.53011,-0.810122 0.3072,-0.287463 0.69867,-0.287463 0.13321,0 0.28273,0.0294 0.14952,0.02613 0.23651,0.0686 z m 0.95421,-3.557349 h 1.85133 v 10.247388 l -0.13321,2.002437 h -1.71812 V 72.081361 m 5.58117,7.647158 v 0.565125 q 0,1.055118 -0.13593,1.835841 -0.13592,0.780722 -0.41865,1.306648 -0.28001,0.525925 -0.7177,0.790522 -0.4404,0.264596 -1.03576,0.264596 -0.53827,0 -0.92431,-0.307063 -0.38331,-0.307062 -0.64701,-0.855854 -0.26098,-0.545526 -0.42409,-1.283782 -0.16312,-0.738256 -0.23652,-1.61371 v -0.839521 q 0.068,-0.859121 0.23108,-1.600644 0.16039,-0.741523 0.42137,-1.290315 0.25827,-0.545526 0.64702,-0.852588 0.38875,-0.307062 0.91886,-0.307062 0.60896,0 1.04936,0.267863 0.43769,0.267863 0.7177,0.793789 0.28273,0.525925 0.41865,1.313181 0.13593,0.783989 0.13593,1.812974 m -1.85133,0.565125 v -0.565125 q 0,-0.597792 -0.0381,-1.028985 -0.0408,-0.431194 -0.1468,-0.718657 -0.10602,-0.287462 -0.30176,-0.431194 -0.19573,-0.140465 -0.5138,-0.140465 -0.28545,0 -0.47847,0.130666 -0.19301,0.130664 -0.32894,0.382194 -0.13593,0.25153 -0.19845,0.591258 -0.0652,0.336462 -0.0707,0.74479 v 1.505912 q 0.005,0.552058 0.11417,0.973452 0.10603,0.42466 0.33982,0.653324 0.23652,0.23193 0.63342,0.23193 0.31264,0 0.50565,-0.127398 0.19302,-0.127399 0.30176,-0.405061 0.10874,-0.280929 0.1468,-0.721923 0.0353,-0.44426 0.0353,-1.074718 z m 2.78107,0.01633 v -0.581458 q 0,-1.012653 0.20389,-1.793375 0.20118,-0.783989 0.57905,-1.313181 0.37788,-0.529192 0.91343,-0.806855 0.53284,-0.274396 1.19888,-0.274396 0.66876,0 1.20432,0.274396 0.53283,0.277663 0.91614,0.806855 0.3806,0.529192 0.58721,1.313181 0.20389,0.780722 0.20389,1.793375 v 0.581458 q 0,1.006119 -0.20389,1.786841 -0.20661,0.780722 -0.58721,1.316449 -0.38331,0.532459 -0.91343,0.803588 -0.53011,0.274396 -1.19615,0.274396 -0.66333,0 -1.19616,-0.274396 -0.53556,-0.271126 -0.91887,-0.803585 -0.38603,-0.535727 -0.58721,-1.316449 -0.20389,-0.780722 -0.20389,-1.786841 m 1.85949,-0.581458 v 0.581458 q 0,0.597791 0.068,1.038785 0.0707,0.437727 0.2066,0.72519 0.13593,0.287462 0.32895,0.421394 0.19301,0.137199 0.44312,0.137199 0.25282,0 0.45128,-0.137199 0.20117,-0.133932 0.32894,-0.421394 0.13049,-0.287463 0.19302,-0.72519 0.0625,-0.440994 0.0625,-1.038785 v -0.581458 q 0,-0.581458 -0.0734,-1.025719 -0.0707,-0.440993 -0.20389,-0.72519 -0.13321,-0.284195 -0.32894,-0.431193 -0.19574,-0.146998 -0.44041,-0.146998 -0.24739,0 -0.43497,0.146998 -0.19029,0.146998 -0.32622,0.431193 -0.13593,0.284197 -0.20661,0.72519 -0.068,0.444261 -0.068,1.025719 z m 4.90425,0.581458 v -0.581458 q 0,-1.012653 0.20117,-1.793375 0.20389,-0.783989 0.58177,-1.313181 0.37788,-0.529192 0.91343,-0.806855 0.53283,-0.274396 1.19616,-0.274396 0.67148,0 1.20431,0.274396 0.53556,0.277663 0.91615,0.806855 0.38332,0.529192 0.58721,1.313181 0.20661,0.780722 0.20661,1.793375 v 0.581458 q 0,1.006119 -0.20661,1.786841 -0.20389,0.780722 -0.58721,1.316449 -0.38059,0.532459 -0.91071,0.803588 -0.53283,0.274396 -1.19616,0.274396 -0.66332,0 -1.19616,-0.274396 -0.53555,-0.271129 -0.92158,-0.803588 -0.38332,-0.535727 -0.58721,-1.316449 -0.20117,-0.780722 -0.20117,-1.786841 m 1.85948,-0.581458 v 0.581458 q 0,0.597791 0.068,1.038785 0.0707,0.437727 0.20661,0.72519 0.13593,0.287462 0.32894,0.421394 0.1903,0.137199 0.44313,0.137199 0.25282,0 0.45128,-0.137199 0.20117,-0.133932 0.32894,-0.421394 0.13049,-0.287463 0.19302,-0.72519 0.0625,-0.440994 0.0625,-1.038785 v -0.581458 q 0,-0.581458 -0.0734,-1.025719 -0.0734,-0.440993 -0.2039,-0.72519 -0.1332,-0.284195 -0.32894,-0.431193 -0.19573,-0.146998 -0.44312,-0.146998 -0.24467,0 -0.43497,0.146998 -0.18758,0.146998 -0.32351,0.431193 -0.13592,0.284197 -0.2066,0.72519 -0.068,0.444261 -0.068,1.025719 z m 6.97306,-7.656957 v 12.259624 h -1.85676 V 72.071562 h 1.85676 m 3.77878,3.629215 -2.53096,4.292338 -1.51967,2.048171 -0.65517,-1.698642 1.16626,-2.048172 1.32121,-2.593695 h 2.21833 m -1.93832,8.630409 -1.56588,-3.965676 1.28043,-1.417713 2.41407,5.383389 z"
     id="path2-1"
     style="stroke-width:0.298001" /></g></svg>
